<svg xmlns="http://www.w3.org/2000/svg" xmlns:xlink="http://www.w3.org/1999/xlink" width="22.811" height="21.664" viewBox="0 0 22.811 21.664"><defs><clipPath id="a"><rect width="22.811" height="21.664" transform="translate(0 0)" fill="none"/></clipPath></defs><rect width="16.609" height="14.11" transform="translate(0.75 6.804)" fill="#fff"/><g clip-path="url(#a)"><rect width="16.608" height="14.11" transform="translate(0.75 6.804)" fill="none" stroke="#959595" stroke-linecap="round" stroke-linejoin="round" stroke-width="1.5"/></g><rect width="16.609" height="3.175" transform="translate(0.75 6.17)" fill="#fff"/><g clip-path="url(#a)"><rect width="16.608" height="3.176" transform="translate(0.75 6.169)" fill="none" stroke="#959595" stroke-linecap="round" stroke-linejoin="round" stroke-width="1.5"/></g><path d="M13.687,7.327v0Z" fill="#fff"/><line y2="2.436" transform="translate(13.688 4.891)" fill="none" stroke="#959595" stroke-linecap="round" stroke-linejoin="round" stroke-width="1.5"/><g clip-path="url(#a)"><path d="M4.614,12.586a.525.525,0,1,1,.524.524.524.524,0,0,1-.524-.524" fill="#959595"/><path d="M7.224,12.586a.525.525,0,1,1,.524.524.524.524,0,0,1-.524-.524" fill="#959595"/><path d="M9.835,12.586a.525.525,0,1,1,.524.524.524.524,0,0,1-.524-.524" fill="#959595"/><path d="M4.614,15.2a.525.525,0,1,1,.524.524.524.524,0,0,1-.524-.524" fill="#959595"/><path d="M7.224,15.2a.525.525,0,1,1,.524.524.524.524,0,0,1-.524-.524" fill="#959595"/><path d="M9.835,15.2a.525.525,0,1,1,.524.524.524.524,0,0,1-.524-.524" fill="#959595"/><path d="M12.445,15.2a.525.525,0,1,1,.524.524.524.524,0,0,1-.524-.524" fill="#959595"/><path d="M4.614,17.806a.525.525,0,1,1,.524.524.524.524,0,0,1-.524-.524" fill="#959595"/><path d="M7.224,17.806a.525.525,0,1,1,.524.524.524.524,0,0,1-.524-.524" fill="#959595"/><path d="M9.835,17.806a.525.525,0,1,1,.524.524.524.524,0,0,1-.524-.524" fill="#959595"/><path d="M12.445,17.806a.525.525,0,1,1,.524.524.524.524,0,0,1-.524-.524" fill="#959595"/><path d="M10.061,6.75a6,6,0,1,1,6,6,6,6,0,0,1-6-6" fill="#fff"/><circle cx="6" cy="6" r="6" transform="translate(10.061 0.75)" fill="none" stroke="#959595" stroke-linecap="round" stroke-linejoin="round" stroke-width="1.5"/><path d="M19.035,5.3,15.467,8.553l-2.126-1.94" fill="none" stroke="#959595" stroke-linecap="round" stroke-linejoin="round" stroke-width="1.5"/></g></svg>