<svg xmlns="http://www.w3.org/2000/svg" width="20" height="21" viewBox="0 0 20 21">
  <g id="Rectangle_48" data-name="Rectangle 48" transform="translate(20 21) rotate(180)" fill="#fff" stroke="#bcbcbc" stroke-width="1">
    <path d="M7,0H20a0,0,0,0,1,0,0V21a0,0,0,0,1,0,0H7a7,7,0,0,1-7-7V7A7,7,0,0,1,7,0Z" stroke="none"/>
    <path d="M7,.5H19.5a0,0,0,0,1,0,0v20a0,0,0,0,1,0,0H7A6.5,6.5,0,0,1,.5,14V7A6.5,6.5,0,0,1,7,.5Z" fill="none"/>
  </g>
  <path id="Path_9" data-name="Path 9" d="M1326.7,121l4.235,4.235,4.235-4.235" transform="translate(-113.383 1341.673) rotate(-90)" fill="none" stroke="#16962b" stroke-linecap="round" stroke-linejoin="round" stroke-width="2"/>
</svg>
