<svg id="btn_close-large" xmlns="http://www.w3.org/2000/svg" width="31.727" height="31.727" viewBox="0 0 31.727 31.727">
  <g id="Path_309" data-name="Path 309" fill="#fff">
    <path d="M 15.86328125 30.72656059265137 C 11.89315128326416 30.72656059265137 8.160661697387695 29.18051147460938 5.35335111618042 26.37321090698242 C 2.546051263809204 23.5659008026123 1.000001192092896 19.83341217041016 1.000001192092896 15.86328125 C 1.000001192092896 11.89315128326416 2.546051263809204 8.160661697387695 5.35335111618042 5.35335111618042 C 8.160661697387695 2.546051263809204 11.89315128326416 1.000001192092896 15.86328125 1.000001192092896 C 19.83341217041016 1.000001192092896 23.5659008026123 2.546051263809204 26.37321090698242 5.35335111618042 C 29.18051147460938 8.160661697387695 30.72656059265137 11.89315128326416 30.72656059265137 15.86328125 C 30.72656059265137 19.83341217041016 29.18051147460938 23.5659008026123 26.37321090698242 26.37321090698242 C 23.5659008026123 29.18051147460938 19.83341217041016 30.72656059265137 15.86328125 30.72656059265137 Z" stroke="none"/>
    <path d="M 15.86328125 2.000001907348633 C 12.1602611541748 2.000001907348633 8.678892135620117 3.442031860351562 6.060461044311523 6.060461044311523 C 3.442031860351562 8.678892135620117 2.000001907348633 12.1602611541748 2.000001907348633 15.86328125 C 2.000001907348633 19.5663013458252 3.442031860351562 23.04767227172852 6.060461044311523 25.66610145568848 C 8.678892135620117 28.28453063964844 12.1602611541748 29.72656059265137 15.86328125 29.72656059265137 C 19.5663013458252 29.72656059265137 23.04767227172852 28.28453063964844 25.66610145568848 25.66610145568848 C 28.28453063964844 23.04767227172852 29.72656059265137 19.5663013458252 29.72656059265137 15.86328125 C 29.72656059265137 12.1602611541748 28.28453063964844 8.678892135620117 25.66610145568848 6.060461044311523 C 23.04767227172852 3.442031860351562 19.5663013458252 2.000001907348633 15.86328125 2.000001907348633 M 15.86328125 1.9073486328125e-06 C 24.62433242797852 1.9073486328125e-06 31.72656059265137 7.102231979370117 31.72656059265137 15.86328125 C 31.72656059265137 24.62433242797852 24.62433242797852 31.72656059265137 15.86328125 31.72656059265137 C 7.102231979370117 31.72656059265137 1.9073486328125e-06 24.62433242797852 1.9073486328125e-06 15.86328125 C 1.9073486328125e-06 7.102231979370117 7.102231979370117 1.9073486328125e-06 15.86328125 1.9073486328125e-06 Z" stroke="none" fill="#bcbcbc"/>
  </g>
  <line id="Line_37" data-name="Line 37" x2="14.932" transform="translate(10.586 10.584) rotate(45)" fill="none" stroke="#8d8d8d" stroke-miterlimit="10" stroke-width="2"/>
  <line id="Line_38" data-name="Line 38" y2="14.932" transform="translate(21.141 10.585) rotate(45)" fill="none" stroke="#8d8d8d" stroke-miterlimit="10" stroke-width="2"/>
</svg>
