<svg xmlns="http://www.w3.org/2000/svg" xmlns:xlink="http://www.w3.org/1999/xlink" width="22.549" height="25.639" viewBox="0 0 22.549 25.639">
  <defs>
    <rect id="Rectangle_466" data-name="Rectangle 466" width="22.549" height="25.639" transform="translate(0 0)" fill="none"/>
  </defs>
  <g id="Group_558" data-name="Group 558" transform="translate(0 0)">
    <path id="Path_413" data-name="Path 413" d="M17.085,7.986h-9.1V24.639H21.549V7.986Z" fill="#fff"/>
    <g id="Group_551" data-name="Group 551">
      <g id="Group_550" data-name="Group 550" clip-path="url(#clip-path)">
        <path id="Path_414" data-name="Path 414" d="M17.085,7.986h-9.1V24.639H21.549V7.986Z" fill="none" stroke="#333" stroke-linecap="round" stroke-linejoin="round" stroke-width="2"/>
      </g>
    </g>
    <path id="Path_415" data-name="Path 415" d="M13.592,4.493h-9.1V21.146H18.056V4.493Z" fill="#fff"/>
    <path id="Path_416" data-name="Path 416" d="M13.592,4.493h-9.1V21.146H18.056V4.493Z" fill="none" stroke="#333" stroke-linecap="round" stroke-linejoin="round" stroke-width="2"/>
    <path id="Path_417" data-name="Path 417" d="M10.1,1V5.6h4.12" fill="#fff"/>
    <g id="Group_553" data-name="Group 553">
      <g id="Group_552" data-name="Group 552" clip-path="url(#clip-path)">
        <path id="Path_418" data-name="Path 418" d="M10.1,1V5.6h4.12" fill="none" stroke="#333" stroke-linecap="round" stroke-linejoin="round" stroke-width="2"/>
      </g>
    </g>
    <path id="Path_419" data-name="Path 419" d="M14.563,17.653H1V1h9.1l4.464,4.292Z" fill="#fff"/>
    <g id="Group_555" data-name="Group 555">
      <g id="Group_554" data-name="Group 554" clip-path="url(#clip-path)">
        <path id="Path_420" data-name="Path 420" d="M14.563,17.653H1V1h9.1l4.464,4.292Z" fill="none" stroke="#333" stroke-linecap="round" stroke-linejoin="round" stroke-width="2"/>
      </g>
    </g>
    <path id="Path_421" data-name="Path 421" d="M10.1,1V5.6h4.12" fill="#16962b"/>
    <g id="Group_557" data-name="Group 557">
      <g id="Group_556" data-name="Group 556" clip-path="url(#clip-path)">
        <path id="Path_422" data-name="Path 422" d="M10.1,1V5.6h4.12" fill="none" stroke="#333" stroke-width="2"/>
      </g>
    </g>
  </g>
</svg>
