<svg xmlns="http://www.w3.org/2000/svg" xmlns:xlink="http://www.w3.org/1999/xlink" width="20.46" height="24.666" viewBox="0 0 20.46 24.666">
  <defs>
    <rect width="20.46" height="24.666" fill="none"/>
  </defs>
  <path d="M13.384,1V7.267h5.608" fill="#fff"/>
  <g clip-path="url(#a)">
    <path d="M18.992,8.267H13.384a1,1,0,0,1-1-1V1a1,1,0,1,1,2,0V6.267h4.608a1,1,0,0,1,0,2Z" fill="#333"/>
  </g>
  <path d="M19.46,23.666H1V1H13.384L19.46,6.842Z" fill="#fff"/>
    <g clip-path="url(#a)">
      <path d="M19.46,24.666H1a1,1,0,0,1-1-1V1A1,1,0,0,1,1,0H13.384a1,1,0,0,1,.693.279l6.076,5.842a1,1,0,0,1,.307.721V23.666A1,1,0,0,1,19.46,24.666ZM2,22.666H18.46V7.268L12.981,2H2Z" fill="#333"/>
    </g>
  <path d="M13.384,1V7.267h5.608" fill="#16962b"/>
  <g clip-path="url(#a)"><path d="M18.992,8.267H12.384V1h2V6.267h4.608Z" fill="#333"/></g>
  <path d="M10.23,18.867a1,1,0,0,1-.674-.261L5.709,15.1a1,1,0,0,1,1.348-1.477l3.173,2.895L13.4,13.619A1,1,0,1,1,14.75,15.1L10.9,18.606A1,1,0,0,1,10.23,18.867Z" fill="#16962b"/>
  <path d="M0,9.625a1,1,0,0,1-1-1V0A1,1,0,0,1,0-1,1,1,0,0,1,1,0V8.625A1,1,0,0,1,0,9.625Z" transform="translate(10.23 9.143)" fill="#16962b"/>
</svg>
