<svg xmlns="http://www.w3.org/2000/svg" width="8.906" height="10.796" viewBox="0 0 8.906 10.796">
  <path id="Path_622" data-name="Path 622"
    d="M.656,0H-4.237V-10.8H1.007A3.335,3.335,0,0,1,3.82-9.646,2.736,2.736,0,0,1,4.318-8a2.41,2.41,0,0,1-.5,1.589A2.571,2.571,0,0,1,3-5.793a2.407,2.407,0,0,1,1.249.952,2.854,2.854,0,0,1,.421,1.582,3.144,3.144,0,0,1-.483,1.721,2.983,2.983,0,0,1-.769.85A3,3,0,0,1,2.19-.146,7.563,7.563,0,0,1,.656,0ZM.6-4.753H-2.084v2.878H.568a2.6,2.6,0,0,0,1.106-.19,1.356,1.356,0,0,0,.718-1.348A1.158,1.158,0,0,0,1.7-4.57,2.788,2.788,0,0,0,.6-4.753ZM1.725-6.812a1.01,1.01,0,0,0,.439-.945.966.966,0,0,0-.586-1A4.147,4.147,0,0,0,.289-8.921H-2.084v2.38H.568A2.206,2.206,0,0,0,1.725-6.812Z"
    transform="translate(4.237 10.796)" />
</svg>