<svg xmlns="http://www.w3.org/2000/svg" width="10.247" height="10.248" viewBox="0 0 10.247 10.248">
  <g id="Group_4523" data-name="Group 4523" transform="translate(-0.255 -0.255)">
    <g id="Group_4524" data-name="Group 4524" transform="translate(0.756 0.757)">
      <path id="Path_611" data-name="Path 611"
        d="M39.028,10.021l-.707-.707L39.63,8a1.907,1.907,0,0,0-2.7-2.7L35.624,6.617l-.707-.707L36.226,4.6a2.907,2.907,0,0,1,4.111,4.112Z"
        transform="translate(-31.441 -4.252)" />
      <path id="Path_612" data-name="Path 612"
        d="M38.674,10.168a.5.5,0,0,1-.354-.854L39.63,8a1.907,1.907,0,0,0-2.7-2.7L35.624,6.617a.5.5,0,0,1-.707-.707L36.226,4.6a2.907,2.907,0,0,1,4.111,4.112l-1.309,1.309A.5.5,0,0,1,38.674,10.168Z"
        transform="translate(-31.441 -4.252)" />
      <path id="Path_613" data-name="Path 613"
        d="M6.656,41.187A2.906,2.906,0,0,1,4.6,36.226L5.91,34.916l.707.707L5.308,36.933a1.907,1.907,0,0,0,2.7,2.7l1.309-1.309.707.707L8.712,40.337A2.9,2.9,0,0,1,6.656,41.187Z"
        transform="translate(-4.252 -31.441)" />
      <path id="Path_614" data-name="Path 614"
        d="M6.656,41.187A2.906,2.906,0,0,1,4.6,36.226L5.91,34.916a.5.5,0,1,1,.707.707L5.308,36.933a1.907,1.907,0,0,0,2.7,2.7l1.309-1.309a.5.5,0,1,1,.707.707L8.712,40.337A2.9,2.9,0,0,1,6.656,41.187Z"
        transform="translate(-4.252 -31.441)" />
      <path id="Line_233" data-name="Line 233" d="M.354,3.084l-.707-.707L2.377-.354l.707.707Z"
        transform="translate(3.172 3.343)" />
      <path id="Line_234" data-name="Line 234"
        d="M0,3.231a.5.5,0,0,1-.354-.146.5.5,0,0,1,0-.707L2.377-.354a.5.5,0,0,1,.707,0,.5.5,0,0,1,0,.707L.354,3.084A.5.5,0,0,1,0,3.231Z"
        transform="translate(3.172 3.343)" />
    </g>
  </g>
</svg>