<svg xmlns="http://www.w3.org/2000/svg" width="11.734" height="9.499" viewBox="0 0 11.734 9.499">
  <g id="Group_4525" data-name="Group 4525" transform="translate(-0.766 -1.501)">
    <path id="Line_215" data-name="Line 215" d="M8,.5H0v-1H8Z" transform="translate(4.5 2.001)" />
    <path id="Line_216" data-name="Line 216" d="M8,.5H0v-1H8Z" transform="translate(4.5 6.001)" />
    <path id="Line_217" data-name="Line 217" d="M8,.5H0v-1H8Z" transform="translate(4.5 10.001)" />
    <path id="Path_625" data-name="Path 625"
      d="M-.912-2.476v-.337a1.79,1.79,0,0,0,.664-.155.764.764,0,0,0,.281-.514H.38V0H-.089V-2.476Z"
      transform="translate(2 5)" />
    <path id="Path_626" data-name="Path 626"
      d="M-1.234,0a2.039,2.039,0,0,1,.187-.786,1.512,1.512,0,0,1,.634-.608l.469-.271A2.207,2.207,0,0,0,.5-1.978a.642.642,0,0,0,.2-.464.648.648,0,0,0-.183-.485.667.667,0,0,0-.488-.179A.638.638,0,0,0-.6-2.764a1.224,1.224,0,0,0-.1.508h-.447A1.569,1.569,0,0,1-.98-3,1.057,1.057,0,0,1,.028-3.508a1.093,1.093,0,0,1,.878.325,1.086,1.086,0,0,1,.277.723.982.982,0,0,1-.3.718,2.892,2.892,0,0,1-.613.42l-.334.186a2.166,2.166,0,0,0-.376.251.916.916,0,0,0-.308.471H1.166V0Z"
      transform="translate(2 11)" />
  </g>
</svg>