<svg xmlns="http://www.w3.org/2000/svg" width="10.226" height="9.915" viewBox="0 0 10.226 9.915">
  <path id="Path_624" data-name="Path 624"
    d="M1.787-7.2h1.2L2.174-4.45q-.1.336-.136.5A1.165,1.165,0,0,0,2-3.669a.585.585,0,0,0,.127.359.476.476,0,0,0,.406.168,1.478,1.478,0,0,0,1.095-.714,3.027,3.027,0,0,0,.549-1.895,2.606,2.606,0,0,0-1.5-2.507A4.559,4.559,0,0,0,.562-8.741,4.66,4.66,0,0,0-2.9-7.42,3.926,3.926,0,0,0-4.085-4.558,3.538,3.538,0,0,0-2.7-1.619,4.7,4.7,0,0,0,.289-.66,5.709,5.709,0,0,0,2.542-1.1a6.027,6.027,0,0,0,1.181-.667l.152-.108.463.711A6.831,6.831,0,0,1,2.387-.1,6.6,6.6,0,0,1,.206.26,5.16,5.16,0,0,1-3.875-1.377,4.7,4.7,0,0,1-5.075-4.6a4.721,4.721,0,0,1,1.5-3.529A5.544,5.544,0,0,1,.454-9.655,5.149,5.149,0,0,1,3.767-8.607,3.564,3.564,0,0,1,5.151-5.675,3.694,3.694,0,0,1,4.275-3.2a2.579,2.579,0,0,1-2,1.031,1.181,1.181,0,0,1-.9-.33.987.987,0,0,1-.314-.679q0-.044,0-.1t.01-.117a2.661,2.661,0,0,1-.54.73,1.862,1.862,0,0,1-1.295.489,1.67,1.67,0,0,1-1.279-.552,2.185,2.185,0,0,1-.511-1.542,3.438,3.438,0,0,1,.781-2.152,2.351,2.351,0,0,1,1.917-1,1.4,1.4,0,0,1,1.035.368,1.439,1.439,0,0,1,.375.654ZM-.949-3.4a.7.7,0,0,0,.6.286q.679,0,1.114-1.031A4.532,4.532,0,0,0,1.2-5.764a.819.819,0,0,0-.2-.565.694.694,0,0,0-.546-.229,1.352,1.352,0,0,0-1.136.822,3.172,3.172,0,0,0-.476,1.59A1.21,1.21,0,0,0-.949-3.4Z"
    transform="translate(5.075 9.655)" />
</svg>