<svg xmlns="http://www.w3.org/2000/svg" width="12.404" height="12.404" viewBox="0 0 12.404 12.404">
  <g id="Group_396" data-name="Group 396" transform="translate(0 0)">
    <g id="Group_512" data-name="Group 512" transform="translate(0 0)">
      <path id="Path_253" data-name="Path 253" d="M10.389,12.4H4.274a.563.563,0,0,1,0-1.127h6.115a.889.889,0,0,0,.888-.888V2.015a.889.889,0,0,0-.888-.888H2.015a.889.889,0,0,0-.888.888V7.747A.563.563,0,1,1,0,7.747V2.015A2.017,2.017,0,0,1,2.015,0h8.374A2.017,2.017,0,0,1,12.4,2.015v8.374A2.017,2.017,0,0,1,10.389,12.4" transform="translate(0 0)" fill="#16962b"/>
      <path id="Path_254" data-name="Path 254" d="M4.18,30.433a.563.563,0,0,1-.4-.962l5.853-5.853a.563.563,0,0,1,.8.8L4.578,30.268a.561.561,0,0,1-.4.165" transform="translate(-2.898 -18.791)" fill="#16962b"/>
      <path id="Path_255" data-name="Path 255" d="M20.1,24.925a.563.563,0,0,1-.563-.563v-3.8h-3.8a.563.563,0,1,1,0-1.127H20.1a.563.563,0,0,1,.563.563v4.36a.563.563,0,0,1-.563.563" transform="translate(-12.161 -15.574)" fill="#16962b"/>
    </g>
  </g>
</svg>
