<svg xmlns="http://www.w3.org/2000/svg" width="28.339" height="33.17" viewBox="0 0 28.339 33.17">
  <g id="Component_44_1" data-name="Component 44 – 1" transform="translate(0.941 1)">
    <g id="Group_425" data-name="Group 425" transform="translate(-0.935 -0.935)">
      <path id="Path_287" data-name="Path 287" d="M26.059,31.086H4V4H18.8l7.26,6.981Z" transform="translate(-3.065 -3.065)" fill="#fff"/>
      <path id="Path_288" data-name="Path 288" d="M57,4v7.489h6.7" transform="translate(-41.266 -3.065)" fill="#16962b" stroke="#707070" stroke-width="2"/>
      <g id="Group_424" data-name="Group 424" transform="translate(0.993 0.935)">
        <g id="Group_426" data-name="Group 426">
          <path id="Path_289" data-name="Path 289" d="M57,4v7.489h6.7" transform="translate(-42.201 -4)" fill="none" stroke="#000" stroke-linecap="round" stroke-linejoin="round" stroke-width="2"/>
          <path id="Path_290" data-name="Path 290" d="M26.059,31.086H4V4H18.8l7.26,6.981Z" transform="translate(-4 -4)" fill="none" stroke="#000" stroke-linecap="round" stroke-linejoin="round" stroke-width="2"/>
        </g>
      </g>
      <line id="Line_27" data-name="Line 27" x2="10.582" transform="translate(6.494 11.824)" fill="none" stroke="#000" stroke-linecap="round" stroke-linejoin="round" stroke-width="2"/>
      <line id="Line_28" data-name="Line 28" x2="10.582" transform="translate(6.494 16.57)" fill="none" stroke="#000" stroke-linecap="round" stroke-linejoin="round" stroke-width="2"/>
      <line id="Line_29" data-name="Line 29" x2="10.582" transform="translate(6.494 21.598)" fill="none" stroke="#000" stroke-linecap="round" stroke-linejoin="round" stroke-width="2"/>
    </g>
    <path id="Path_302" data-name="Path 302" d="M19.06,31.169a5.8,5.8,0,1,1,5.8-5.8,5.807,5.807,0,0,1-5.8,5.8" transform="translate(1.538 0.001)" fill="#fff" stroke="#000" stroke-width="2"/>
    <line id="Line_35" data-name="Line 35" x2="5.021" transform="translate(18.087 25.37)" fill="none" stroke="#000" stroke-linecap="round" stroke-miterlimit="10" stroke-width="2"/>
    <line id="Line_36" data-name="Line 36" y2="5.021" transform="translate(20.597 22.86)" fill="none" stroke="#000" stroke-linecap="round" stroke-miterlimit="10" stroke-width="2"/>
  </g>
</svg>
