<svg xmlns="http://www.w3.org/2000/svg" width="20.46" height="24.666" viewBox="0 0 20.46 24.666"><g transform="translate(0.065 0.065)"><path d="M57,4v6.267h5.608" transform="translate(-43.681 -3.065)" fill="#fff" stroke="#333" stroke-linecap="round" stroke-linejoin="round" stroke-width="2"/><path d="M22.46,26.666H4V4H16.384L22.46,9.842Z" transform="translate(-3.065 -3.065)" fill="#fff" stroke="#333" stroke-linecap="round" stroke-linejoin="round" stroke-width="2"/><path d="M22.46,26.666H4V4H16.384L22.46,9.842Z" transform="translate(-3.065 -3.065)" fill="none"/><path d="M57,4v6.267h5.608" transform="translate(-43.681 -3.065)" fill="#16962b" stroke="#333" stroke-width="2"/><line x2="5.383" transform="translate(9.412 10.047)" fill="none" stroke="#333" stroke-linecap="round" stroke-linejoin="round" stroke-width="2"/><line x2="5.383" transform="translate(9.412 14.02)" fill="none" stroke="#333" stroke-linecap="round" stroke-linejoin="round" stroke-width="2"/><line x2="5.383" transform="translate(9.412 18.227)" fill="none" stroke="#333" stroke-linecap="round" stroke-linejoin="round" stroke-width="2"/><path d="M3.83,8l.657.952L6.411,7.542" transform="translate(0 1.674)" fill="none" stroke="#16962b" stroke-linecap="round" stroke-linejoin="round" stroke-width="1"/><path d="M3.83,8l.657.952L6.411,7.542" transform="translate(0 5.674)" fill="none" stroke="#16962b" stroke-linecap="round" stroke-linejoin="round" stroke-width="1"/><path d="M3.83,8l.657.952L6.411,7.542" transform="translate(0 9.674)" fill="none" stroke="#16962b" stroke-linecap="round" stroke-linejoin="round" stroke-width="1"/></g></svg>