<svg xmlns="http://www.w3.org/2000/svg" xmlns:xlink="http://www.w3.org/1999/xlink" width="26.21" height="21.512" viewBox="0 0 26.21 21.512">
  <defs>
    <rect id="Rectangle_471" data-name="Rectangle 471" width="26.21" height="21.512" transform="translate(0 0)" fill="none"/>
  </defs>
  <g id="Group_561" data-name="Group 561" transform="translate(0 0)" clip-path="url(#clip-path)">
    <path id="Path_429" data-name="Path 429" d="M19.193,1H3.69L6.38,3.729V17.858a2.654,2.654,0,0,0,2.654,2.654H21.847V3.654A2.654,2.654,0,0,0,19.193,1" fill="#fff"/>
    <path id="Path_430" data-name="Path 430" d="M19.193,1H3.69L6.38,3.729V17.858a2.654,2.654,0,0,0,2.654,2.654H21.847V3.654A2.654,2.654,0,0,0,19.193,1Z" fill="none" stroke="#333" stroke-linecap="round" stroke-linejoin="round" stroke-width="2"/>
    <path id="Path_431" data-name="Path 431" d="M11.76,16.132v1.726a2.654,2.654,0,0,1-2.654,2.654h13.45a2.654,2.654,0,0,0,2.654-2.654V16.132Z" fill="#16962b"/>
    <path id="Path_432" data-name="Path 432" d="M11.76,16.132v1.726a2.654,2.654,0,0,1-2.654,2.654h13.45a2.654,2.654,0,0,0,2.654-2.654V16.132Z" fill="none" stroke="#333" stroke-linecap="round" stroke-linejoin="round" stroke-width="2"/>
    <path id="Path_433" data-name="Path 433" d="M3.726,1H3.654A2.654,2.654,0,0,0,1,3.654V5.38H6.38V3.654A2.654,2.654,0,0,0,3.726,1" fill="#16962b"/>
    <path id="Path_434" data-name="Path 434" d="M3.726,1H3.654A2.654,2.654,0,0,0,1,3.654V5.38H6.38V3.654A2.654,2.654,0,0,0,3.726,1Z" fill="none" stroke="#333" stroke-linecap="round" stroke-linejoin="round" stroke-width="2"/>
    <path id="Path_435" data-name="Path 435" d="M11.213,9.753a3.763,3.763,0,1,1,1.676,2.515" fill="none" stroke="#16962b" stroke-linecap="round" stroke-linejoin="round" stroke-width="1.3"/>
    <path id="Path_436" data-name="Path 436" d="M13.166,8.441l-2.011,1.694L9.461,8.124" fill="none" stroke="#16962b" stroke-linecap="round" stroke-linejoin="round" stroke-width="1.3"/>
  </g>
</svg>
