<svg xmlns="http://www.w3.org/2000/svg" xmlns:xlink="http://www.w3.org/1999/xlink" width="26" height="26" viewBox="0 0 26 26">
  <defs>
    <clipPath>
      <rect id="Rectangle_722" data-name="Rectangle 722" width="11.426" height="10.909" fill="none"/>
    </clipPath>
  </defs>
  <g id="Group_4370" data-name="Group 4370" transform="translate(-515 -284)">
    <circle id="Ellipse_124" data-name="Ellipse 124" cx="13" cy="13" r="13" transform="translate(515 284)" fill="#efefe9"/>
    <g id="Group_661" data-name="Group 661" transform="translate(522 292)">
      <g id="Group_662" data-name="Group 662" transform="translate(0 0)" clip-path="url(#clip-path)">
        <path id="Path_507" data-name="Path 507" d="M0,1a1,1,0,1,1,1,1A1,1,0,0,1,0,1" transform="translate(0 0)" fill="#16962b"/>
        <line id="Line_223" data-name="Line 223" x2="6.065" transform="translate(4.591 1.003)" fill="none" stroke="#16962b" stroke-linecap="round" stroke-linejoin="round" stroke-width="1.5"/>
        <path id="Path_508" data-name="Path 508" d="M0,5.345a1,1,0,1,1,1,1,1,1,0,0,1-1-1" transform="translate(0 0.11)" fill="#16962b"/>
        <line id="Line_224" data-name="Line 224" x2="6.065" transform="translate(4.591 5.454)" fill="none" stroke="#16962b" stroke-linecap="round" stroke-linejoin="round" stroke-width="1.5"/>
        <path id="Path_509" data-name="Path 509" d="M0,9.686a1,1,0,1,1,1,1,1,1,0,0,1-1-1" transform="translate(0 0.22)" fill="#16962b"/>
        <line id="Line_225" data-name="Line 225" x2="6.065" transform="translate(4.591 9.906)" fill="none" stroke="#16962b" stroke-linecap="round" stroke-linejoin="round" stroke-width="1.5"/>
      </g>
    </g>
  </g>
</svg>
