<svg xmlns="http://www.w3.org/2000/svg" xmlns:xlink="http://www.w3.org/1999/xlink" width="26.21" height="21.512" viewBox="0 0 26.21 21.512">
  <defs>
    <rect id="Rectangle_470" data-name="Rectangle 470" width="26.21" height="21.512" transform="translate(0 0)" fill="none"/>
  </defs>
  <g id="Group_560" data-name="Group 560" transform="translate(0 0)">
    <g id="Group_559" data-name="Group 559" clip-path="url(#clip-path)">
      <path id="Path_423" data-name="Path 423" d="M19.193,1H3.69L6.38,3.729V17.858a2.654,2.654,0,0,0,2.654,2.654H21.847V3.654A2.654,2.654,0,0,0,19.193,1" fill="#fff"/>
      <path id="Path_424" data-name="Path 424" d="M19.193,1H3.69L6.38,3.729V17.858a2.654,2.654,0,0,0,2.654,2.654H21.847V3.654A2.654,2.654,0,0,0,19.193,1Z" fill="none" stroke="#333" stroke-linecap="round" stroke-linejoin="round" stroke-width="2"/>
      <path id="Path_425" data-name="Path 425" d="M11.76,16.132v1.726a2.654,2.654,0,0,1-2.654,2.654h13.45a2.654,2.654,0,0,0,2.654-2.654V16.132Z" fill="#16962b"/>
      <path id="Path_426" data-name="Path 426" d="M11.76,16.132v1.726a2.654,2.654,0,0,1-2.654,2.654h13.45a2.654,2.654,0,0,0,2.654-2.654V16.132Z" fill="none" stroke="#333" stroke-linecap="round" stroke-linejoin="round" stroke-width="2"/>
      <path id="Path_427" data-name="Path 427" d="M3.726,1H3.654A2.654,2.654,0,0,0,1,3.654V5.38H6.38V3.654A2.654,2.654,0,0,0,3.726,1" fill="#16962b"/>
      <path id="Path_428" data-name="Path 428" d="M3.726,1H3.654A2.654,2.654,0,0,0,1,3.654V5.38H6.38V3.654A2.654,2.654,0,0,0,3.726,1Z" fill="none" stroke="#333" stroke-linecap="round" stroke-linejoin="round" stroke-width="2"/>
      <line id="Line_44" data-name="Line 44" x2="7.512" transform="translate(10.479 5.406)" fill="none" stroke="#333" stroke-linecap="round" stroke-linejoin="round" stroke-width="2"/>
      <line id="Line_45" data-name="Line 45" x2="3.512" transform="translate(10.479 9.736)" fill="none" stroke="#333" stroke-linecap="round" stroke-linejoin="round" stroke-width="2"/>
    </g>
  </g>
</svg>
