<svg xmlns="http://www.w3.org/2000/svg" width="26.996" height="29.393" viewBox="0 0 26.996 29.393"><g transform="translate(1 1)"><g transform="translate(0 0)"><path d="M62.1,16.813V14.545a4.637,4.637,0,0,1,4.623-4.623h0a4.637,4.637,0,0,1,4.623,4.623v2.268" transform="translate(-56.958 -9.922)" fill="none" stroke="#333" stroke-miterlimit="10" stroke-width="2"/><rect width="19.52" height="13.313" rx="2" transform="translate(0 6.891)" fill="#fff" stroke="#333" stroke-miterlimit="10" stroke-width="2"/><path d="M96.824,119.46a1.712,1.712,0,1,1-1.712-1.712,1.712,1.712,0,0,1,1.712,1.712" transform="translate(-85.181 -107.132)" fill="#333"/><line y2="4.195" transform="translate(9.931 12.328)" fill="none" stroke="#333" stroke-linecap="round" stroke-miterlimit="10" stroke-width="2"/><ellipse cx="6.676" cy="6.676" rx="6.676" ry="6.676" transform="translate(11.644 14.041)" fill="#16962b" stroke="#333" stroke-miterlimit="10" stroke-width="2"/><line y2="0.035" transform="translate(18.32 23.632)" fill="none" stroke="#fff" stroke-linecap="round" stroke-miterlimit="10" stroke-width="2"/><line y2="3.285" transform="translate(18.32 17.703)" fill="none" stroke="#fff" stroke-linecap="round" stroke-linejoin="round" stroke-width="2"/></g></g></svg>