<svg xmlns="http://www.w3.org/2000/svg" width="108.341" height="22.275" viewBox="0 0 108.341 22.275"><g transform="translate(0 -0.001)"><path d="M87.74,6.839V8.716H85.878v1.877H87.74V24.586h1.877V10.593h11.174L94.682,15.72l1.207,1.438,10.06-8.441H89.617V6.839Zm21.071,17.52h1.877V6.839h-1.877Zm5.554-17.52V24.36h1.452l.428-.3,10.315-7.223L125.483,15.3l-9.241,6.47V6.839Zm34.779,0V24.36h1.877V16.538h13.344V14.661H151.021V6.839Zm-20.485,0V8.716H142.8V22.482H128.66V24.36h16.014V6.839Z" transform="translate(-56.025 -4.461)" fill="#1a1311"/><path d="M22.176,12.312h0V1.8L16.92,7.055Z" transform="translate(-11.038 -1.173)" fill="#399d26"/><path d="M7.056,16.92,1.8,22.176H12.312Z" transform="translate(-1.174 -11.037)" fill="#fff"/><path d="M7.056,7.056,12.312,1.8H1.8Z" transform="translate(-1.174 -1.173)" fill="#fff"/><path d="M1.8,1.8h0V12.312L7.056,7.056Z" transform="translate(-1.175 -1.173)" fill="#e0d800"/><rect width="5.256" height="10.512" transform="translate(11.138 0.626)" fill="#fff"/><rect width="5.256" height="10.512" transform="translate(0.625 11.138)" fill="#e0d800"/><rect width="5.256" height="10.512" transform="translate(5.882 11.138)" fill="#399d26"/><rect width="10.512" height="5.256" transform="translate(11.138 11.138)" fill="#e0d800"/><rect width="10.512" height="5.256" transform="translate(11.138 16.395)" fill="#fff"/><path d="M47.16,12.312V1.8h5.256Z" transform="translate(-30.766 -1.173)" fill="#e0d800"/><path d="M52.415,1.8V12.312H47.159Z" transform="translate(-30.766 -1.173)" fill="#399d26"/><path d="M11.763,17.02h9.261v4H11.763ZM1.251,11.764h4v9.26h-4Zm5.256,0h4v9.26h-4Zm5.256,0h9.261v4H11.763Zm-5.881-5,3.745,3.745H2.137Zm15.142-3.49v7.235H17.406ZM6.767,5.882l3.745-3.745V9.628ZM1.251,2.137,5,5.882,1.251,9.628Zm.885-.885H9.627L5.882,5Zm9.627,0h4v9.261h-4Zm5.256,0h3.618L17.019,8.488ZM0,22.276H22.275V0H0Z" fill="#1a1311"/></g></svg>