<svg xmlns="http://www.w3.org/2000/svg" width="60" height="37.855" viewBox="0 0 60 37.855">
  <g id="Group_633" data-name="Group 633" transform="translate(-646.43 -46.072)">
    <path id="Path_386" data-name="Path 386" d="M-24033-16716.072h-56a2,2,0,0,1-2-2,2,2,0,0,1,2-2h56a2,2,0,0,1,2,2A2,2,0,0,1-24033-16716.072Z" transform="translate(24737.43 16800)" fill="#8d8d8d"/>
    <path id="Path_387" data-name="Path 387" d="M-24033-16716.072h-56a2,2,0,0,1-2-2,2,2,0,0,1,2-2h56a2,2,0,0,1,2,2A2,2,0,0,1-24033-16716.072Z" transform="translate(24737.43 16783.072)" fill="#8d8d8d"/>
    <path id="Path_388" data-name="Path 388" d="M-24033-16716.072h-56a2,2,0,0,1-2-2,2,2,0,0,1,2-2h56a2,2,0,0,1,2,2A2,2,0,0,1-24033-16716.072Z" transform="translate(24737.43 16766.145)" fill="#8d8d8d"/>
  </g>
</svg>
