<svg id="Group_454" data-name="Group 454" xmlns="http://www.w3.org/2000/svg" width="22.5" height="22.5" viewBox="0 0 22.5 22.5">
  <g id="Group_491" data-name="Group 491">
    <path id="Path_323" data-name="Path 323" d="M21.75,12.75v-3H19.682a8.778,8.778,0,0,0-1.317-3.179l1.462-1.463L17.392,2.673,15.93,4.136a8.773,8.773,0,0,0-3.18-1.317V.75h-3V2.819A8.773,8.773,0,0,0,6.57,4.136L5.108,2.673,2.673,5.108,4.135,6.571A8.778,8.778,0,0,0,2.818,9.75H.75v3H2.818a8.775,8.775,0,0,0,1.317,3.18L2.673,17.393l2.435,2.435L6.57,18.365a8.773,8.773,0,0,0,3.18,1.317V21.75h3V19.682a8.773,8.773,0,0,0,3.18-1.317l1.462,1.463,2.435-2.435L18.365,15.93a8.776,8.776,0,0,0,1.317-3.18Zm-10.5,2.093a3.593,3.593,0,1,1,3.593-3.593,3.593,3.593,0,0,1-3.593,3.593" fill="none" stroke="#8d8d8d" stroke-width="1.5"/>
    <path id="Path_324" data-name="Path 324" d="M21.75,12.75v-3H19.682a8.778,8.778,0,0,0-1.317-3.179l1.462-1.463L17.392,2.673,15.93,4.136a8.773,8.773,0,0,0-3.18-1.317V.75h-3V2.819A8.773,8.773,0,0,0,6.57,4.136L5.108,2.673,2.673,5.108,4.135,6.571A8.778,8.778,0,0,0,2.818,9.75H.75v3H2.818a8.775,8.775,0,0,0,1.317,3.18L2.673,17.393l2.435,2.435L6.57,18.365a8.773,8.773,0,0,0,3.18,1.317V21.75h3V19.682a8.773,8.773,0,0,0,3.18-1.317l1.462,1.463,2.435-2.435L18.365,15.93a8.776,8.776,0,0,0,1.317-3.18Zm-10.5,2.093a3.593,3.593,0,1,1,3.593-3.593A3.593,3.593,0,0,1,11.25,14.843Z" fill="none" stroke="#8d8d8d" stroke-linecap="round" stroke-linejoin="round" stroke-width="1.5"/>
  </g>
</svg>
