<svg xmlns="http://www.w3.org/2000/svg" width="28.692" height="30.397" viewBox="0 0 28.692 30.397">
  <g id="Group_675" data-name="Group 675" transform="translate(-272.603 -1295)">
    <g id="Group_674" data-name="Group 674" transform="translate(0.271 -73)">
      <path id="Path_528" data-name="Path 528" d="M279.482,1390.529v8.646l.091-.029,3.312-1.056,3.566,1.085v-8.646Z" transform="matrix(0.809, 0.588, -0.588, 0.809, 870.037, 96.672)" fill="#44933b" stroke="#333" stroke-linejoin="round" stroke-width="2"/>
      <path id="Path_529" data-name="Path 529" d="M279.482,1390.529v8.646l.091-.029,3.312-1.056,3.566,1.085v-8.646Z" transform="translate(-892.309 605.234) rotate(-45)" fill="#44933b" stroke="#333" stroke-linejoin="round" stroke-width="2"/>
    </g>
    <g id="Path_524" data-name="Path 524" transform="translate(274 1295)" fill="#fff">
      <path d="M 12.66748046875 24.3349609375 C 9.550980567932129 24.3349609375 6.621020317077637 23.12133026123047 4.417320251464844 20.91764068603516 C 2.213630437850952 18.71393966674805 1.000000476837158 15.78398036956787 1.000000476837158 12.66748046875 C 1.000000476837158 9.550980567932129 2.213630437850952 6.621020317077637 4.417320251464844 4.417320251464844 C 6.621020317077637 2.213630437850952 9.550980567932129 1.000000476837158 12.66748046875 1.000000476837158 C 15.78398036956787 1.000000476837158 18.71393966674805 2.213630437850952 20.91764068603516 4.417320251464844 C 23.12133026123047 6.621020317077637 24.3349609375 9.550980567932129 24.3349609375 12.66748046875 C 24.3349609375 15.78398036956787 23.12133026123047 18.71393966674805 20.91764068603516 20.91764068603516 C 18.71393966674805 23.12133026123047 15.78398036956787 24.3349609375 12.66748046875 24.3349609375 Z" stroke="none"/>
      <path d="M 12.66748046875 2 C 6.785409927368164 2 2 6.785409927368164 2 12.66748046875 C 2 18.54955101013184 6.785409927368164 23.3349609375 12.66748046875 23.3349609375 C 18.54955101013184 23.3349609375 23.3349609375 18.54955101013184 23.3349609375 12.66748046875 C 23.3349609375 6.785409927368164 18.54955101013184 2 12.66748046875 2 M 12.66748046875 0 C 19.66353988647461 0 25.3349609375 5.671421051025391 25.3349609375 12.66748046875 C 25.3349609375 19.66353988647461 19.66353988647461 25.3349609375 12.66748046875 25.3349609375 C 5.671421051025391 25.3349609375 0 19.66353988647461 0 12.66748046875 C 0 5.671421051025391 5.671421051025391 0 12.66748046875 0 Z" stroke="none" fill="#333"/>
    </g>
    <path id="Path_525" data-name="Path 525" d="M-19444.758-16391.457l3.385,3.725,6.539-6.119" transform="translate(19727 17699)" fill="none" stroke="#44933b" stroke-linecap="round" stroke-linejoin="round" stroke-width="3"/>
  </g>
</svg>
